<?xml version="1.0" encoding="utf-8"?>
<!-- Generator: Adobe Illustrator 26.5.0, SVG Export Plug-In . SVG Version: 6.00 Build 0)  -->
<svg version="1.1" id="Aaqid_Masoodi_Logo_r9384yr89yhq9a38hwq8388q3we38h"
	 xmlns="http://www.w3.org/2000/svg" xmlns:xlink="http://www.w3.org/1999/xlink" x="0px" y="0px" viewBox="0 0 911.16 841.86"
	 style="enable-background:new 0 0 911.16 841.86;" xml:space="preserve">
<style type="text/css">
	.st0{fill-rule:evenodd;clip-rule:evenodd;}
</style>
<g id="Aaqid_Masoodi_Logo_00000121970222513904922650000016333199206576019088_">
	<g id="AM">
		<g>
			<path class="st0" d="M354.68,258.86h-35.45l0.43,0.86l-44.96,195.42l-29.4,127.97h35.45l56.64-119.76l19.46-41.07l36.75,160.83
				h35.45L380.62,371.7L354.68,258.86z M319.66,491.46l-40.21,85.17c-8.21-39.78-8.65-73.93-0.43-121.49l42.8-185.91l33.29,147
				L319.66,491.46z M584.68,258.86h-4.32l-51.88,109.82l-40.64-109.82h-37.18v324.26h34.59c-23.35-49.29-30.26-91.22-30.26-137.05
				V269.24l115.44,313.88h36.75l-76.96-209.25l39.34-83.01c57.93,0.43,61.83,26.37,61.83,75.66v216.6h34.59v-220.5
				C665.1,286.53,636.13,259.29,584.68,258.86z"/>
		</g>
	</g>
</g>
</svg>
